<?xml version="1.0" standalone="no"?>
<!DOCTYPE svg PUBLIC "-//W3C//DTD SVG 20010904//EN"
 "http://www.w3.org/TR/2001/REC-SVG-20010904/DTD/svg10.dtd">
<svg version="1.0" xmlns="http://www.w3.org/2000/svg"
 width="915.000000pt" height="323.000000pt" viewBox="0 0 915.000000 323.000000"
 preserveAspectRatio="xMidYMid meet">

<g transform="translate(0.000000,323.000000) scale(0.100000,-0.100000)"
fill="#000000" stroke="none">
<path d="M4955 3174 c-196 -44 -370 -201 -435 -393 -16 -48 -23 -105 -30 -224
-8 -150 -10 -163 -40 -224 -82 -166 -274 -270 -431 -233 -160 37 -266 143
-306 305 l-17 68 -23 -29 c-12 -16 -86 -120 -163 -230 l-140 -202 0 -341 0
-341 175 0 175 0 0 255 c0 142 4 255 9 255 5 0 37 -13 72 -29 124 -58 293 -75
434 -46 84 17 251 98 316 153 115 96 202 222 247 360 20 62 26 107 31 232 8
175 20 210 87 270 51 44 93 60 159 60 31 0 70 -6 89 -14 50 -21 107 -76 130
-126 20 -43 21 -64 24 -497 l3 -453 169 0 169 0 3 453 c3 496 3 494 66 560 65
69 184 97 266 63 53 -22 108 -77 133 -134 23 -53 23 -53 23 -496 l0 -443 143
-6 c78 -3 154 -3 170 0 l27 5 0 442 c-1 513 -5 551 -71 676 -61 115 -145 198
-251 249 -111 53 -156 64 -263 65 -137 1 -278 -50 -385 -140 l-29 -25 -47 36
c-146 111 -327 155 -489 119z m198 -14 c32 -5 81 -20 110 -34 l52 -24 -238 -1
c-143 -1 -236 3 -232 8 11 19 152 57 225 60 14 0 51 -3 83 -9z m902 -21 c114
-36 102 -39 -155 -38 l-245 1 44 20 c108 50 233 56 356 17z"/>
<path d="M2331 789 c-60 -12 -127 -53 -156 -97 -44 -67 -66 -195 -49 -281 l7
-31 86 0 86 0 0 93 c0 136 36 202 124 227 67 19 136 -28 184 -126 22 -47 53
-62 44 -21 -3 12 -13 72 -23 132 l-17 110 -121 1 c-67 1 -141 -2 -165 -7z"/>
<path d="M5221 789 c-87 -17 -152 -70 -186 -153 -18 -44 -30 -170 -21 -220 l7
-36 87 0 88 0 -4 69 c-7 128 41 227 121 249 74 21 140 -23 190 -124 24 -50 50
-60 41 -16 -3 15 -13 73 -22 130 l-17 103 -120 3 c-66 2 -140 0 -164 -5z"/>
<path d="M7750 790 c-8 -6 -106 -10 -217 -10 -112 0 -203 -3 -203 -7 0 -3 8
-15 18 -26 14 -16 17 -44 20 -193 l3 -174 85 0 84 0 0 61 0 62 51 -6 c60 -7
84 -26 110 -82 10 -22 19 -35 19 -30 1 37 -34 255 -41 255 -5 0 -9 -11 -9 -24
0 -34 -35 -56 -87 -56 l-43 0 0 60 c0 81 22 105 88 96 62 -8 115 -45 148 -102
16 -26 30 -42 32 -36 3 10 -34 212 -41 218 -1 2 -9 -1 -17 -6z"/>
<path d="M80 773 c0 -4 9 -16 19 -27 11 -12 31 -61 46 -111 15 -49 38 -127 51
-172 l25 -83 84 0 c47 0 85 2 85 5 0 2 -19 77 -41 165 l-42 162 22 28 c11 16
21 32 21 35 0 3 -61 5 -135 5 -74 0 -135 -3 -135 -7z"/>
<path d="M480 775 c0 -3 9 -19 21 -34 l21 -28 -36 -134 c-20 -74 -40 -149 -45
-167 l-10 -33 37 3 36 3 52 164 c37 114 60 171 78 190 14 15 26 30 26 34 0 4
-40 7 -90 7 -49 0 -90 -2 -90 -5z"/>
<path d="M1010 774 c0 -3 9 -17 20 -31 18 -23 20 -41 20 -194 l0 -169 84 0
c72 0 84 3 88 18 3 11 26 24 64 36 116 36 208 97 240 157 17 33 19 112 3 141
-22 41 -65 48 -299 48 -121 0 -220 -3 -220 -6z m313 -63 c46 -18 54 -101 15
-149 -15 -17 -98 -72 -110 -72 -10 0 -10 191 0 206 15 23 57 29 95 15z"/>
<path d="M1660 771 c0 -6 5 -13 10 -16 18 -11 10 -60 -35 -213 -25 -83 -45
-154 -45 -157 0 -3 46 -5 103 -5 94 1 100 2 82 16 -11 8 -39 20 -63 27 -27 7
-41 16 -38 24 3 7 17 52 32 100 17 55 29 81 34 72 4 -8 20 -65 36 -126 l29
-113 87 0 c64 0 88 3 88 13 0 6 -18 77 -40 157 -41 149 -47 194 -30 205 30 18
-2 25 -120 25 -75 0 -130 -4 -130 -9z"/>
<path d="M2770 769 c0 -7 8 -18 18 -25 15 -11 17 -35 20 -188 l4 -176 84 0 84
0 0 33 c0 31 14 57 32 57 4 0 19 -20 34 -45 l26 -45 90 0 c88 0 89 0 82 23
-11 37 -55 120 -87 165 l-31 43 53 53 c29 29 75 64 102 76 27 13 49 27 49 32
0 4 -54 8 -120 8 -66 0 -120 -3 -120 -7 0 -3 8 -15 17 -25 23 -26 12 -52 -62
-143 l-60 -75 -3 92 c-2 80 0 96 18 120 11 15 20 30 20 33 0 3 -56 5 -125 5
-87 0 -125 -3 -125 -11z"/>
<path d="M3680 774 c0 -3 9 -17 20 -31 18 -23 20 -41 20 -194 l0 -169 35 0 34
0 3 123 3 122 51 -120 51 -120 53 0 54 0 49 110 c26 61 52 114 58 120 5 5 9
-36 9 -113 l0 -122 85 0 85 0 0 173 c0 161 1 175 20 192 11 10 20 22 20 27 0
4 -59 8 -130 8 l-131 0 6 -32 c5 -25 -3 -53 -28 -111 -19 -43 -38 -78 -43 -78
-4 0 -22 38 -38 85 -26 72 -29 89 -18 106 6 11 12 22 12 25 0 3 -63 5 -140 5
-77 0 -140 -3 -140 -6z"/>
<path d="M4550 765 c0 -8 5 -15 10 -15 19 0 10 -52 -35 -204 -25 -84 -45 -156
-45 -160 0 -3 46 -6 103 -6 l102 0 -29 19 c-16 11 -44 22 -63 26 -21 4 -33 11
-30 18 2 7 17 53 32 102 l28 90 12 -35 c6 -19 22 -77 35 -127 l24 -93 88 0
c64 0 88 3 88 13 0 6 -17 75 -39 152 -52 189 -51 182 -35 202 7 10 14 21 14
26 0 4 -58 7 -130 7 -109 0 -130 -2 -130 -15z"/>
<path d="M5650 771 c0 -5 10 -15 23 -23 21 -15 22 -22 25 -192 l4 -176 84 0
84 0 0 75 0 75 75 0 75 0 0 -75 0 -75 84 0 85 0 3 174 c3 149 6 177 21 193 9
11 17 23 17 26 0 4 -56 7 -125 7 -69 0 -125 -3 -125 -6 0 -3 9 -17 20 -31 15
-20 20 -41 20 -89 l0 -64 -75 0 -75 0 0 68 c0 56 4 72 20 87 11 10 20 22 20
27 0 4 -58 8 -130 8 -71 0 -130 -4 -130 -9z"/>
<path d="M6330 772 c0 -4 8 -15 19 -24 16 -14 20 -37 26 -192 l7 -176 78 0 77
0 6 107 c4 58 7 137 7 175 0 56 4 71 20 85 11 10 20 21 20 25 0 5 -58 8 -130
8 -71 0 -130 -3 -130 -8z"/>
<path d="M6690 773 c0 -3 8 -15 18 -26 14 -16 17 -44 20 -193 l3 -174 30 0
c26 0 29 3 30 33 1 17 4 79 8 136 l6 104 104 -136 104 -137 82 0 82 0 6 122
c4 66 7 145 7 175 0 41 5 57 20 70 11 10 20 21 20 25 0 5 -34 8 -75 8 -77 0
-93 -10 -58 -35 13 -10 18 -33 21 -104 2 -50 1 -91 -4 -91 -5 1 -35 36 -66 79
-56 75 -70 113 -48 126 31 19 -4 25 -150 25 -88 0 -160 -3 -160 -7z"/>
<path d="M7930 772 c0 -4 9 -15 20 -25 17 -15 20 -29 20 -115 0 -55 3 -133 6
-175 l7 -77 78 0 c71 0 79 2 79 19 0 11 9 23 22 27 17 5 27 0 43 -20 20 -24
26 -26 108 -26 58 0 87 4 87 11 0 7 -13 34 -30 60 l-30 49 49 48 c62 60 81
113 60 169 -8 21 -26 43 -39 50 -28 14 -480 19 -480 5z m331 -71 c30 -24 31
-84 3 -132 -20 -34 -99 -83 -116 -73 -12 8 0 194 14 212 16 18 73 15 99 -7z"/>
<path d="M8490 771 c0 -5 11 -16 24 -24 25 -17 176 -314 176 -348 0 -17 8 -19
80 -19 75 0 80 1 80 22 0 35 146 299 185 334 19 17 35 34 35 38 0 3 -43 6 -95
6 -94 0 -109 -6 -80 -30 24 -20 17 -59 -24 -145 l-38 -80 -41 82 c-47 92 -52
127 -22 145 11 7 20 16 20 20 0 5 -67 8 -150 8 -82 0 -150 -4 -150 -9z"/>
<path d="M907 419 c-10 -6 -60 -9 -117 -7 -87 3 -100 1 -104 -14 -4 -16 6 -18
108 -18 111 0 113 0 124 25 6 14 11 25 9 25 -1 0 -10 -5 -20 -11z"/>
</g>
</svg>
